<?xml version="1.0" encoding="UTF-8"?>
<svg version="1.1" xmlns="http://www.w3.org/2000/svg" width="1272" height="836">
<path d="M0 0 C419.76 0 839.52 0 1272 0 C1272 275.88 1272 551.76 1272 836 C852.24 836 432.48 836 0 836 C0 560.12 0 284.24 0 0 Z " fill="#FEFEFE" transform="translate(0,0)"/>
<path d="M0 0 C3.82641704 2.04943935 4.80942983 5.70729528 6.41870117 9.59277344 C6.79511749 10.45838394 7.17153381 11.32399445 7.55935669 12.21583557 C8.79215314 15.06197527 9.99778665 17.91881238 11.20385742 20.77636719 C12.05738041 22.75942978 12.91278352 24.74168417 13.77001953 26.72314453 C15.48889984 30.70287633 17.19797473 34.68657695 18.89819336 38.67431641 C21.72236172 45.2929932 24.61023243 51.88285494 27.50772095 58.46966553 C28.90783183 61.65682098 30.29944755 64.84768319 31.69213867 68.03808594 C35.7877664 77.41463973 39.90210745 86.78297328 44.01635742 96.15136719 C44.3947879 97.01312561 44.77321838 97.87488403 45.16311646 98.76275635 C47.09259282 103.15650598 49.02220749 107.55019484 50.9519043 111.94384766 C54.35213857 119.6859058 57.75105249 127.42854357 61.15005493 135.17114258 C62.25929886 137.69778913 63.36864696 140.22438992 64.47802734 142.75097656 C68.01247785 150.80078058 71.54613547 158.85093053 75.07754517 166.90206909 C76.75635534 170.72942176 78.43553559 174.55661202 80.11474609 178.38378906 C80.91961957 180.21850567 81.72430918 182.05330294 82.52880859 183.88818359 C83.64008678 186.42272673 84.75198242 188.95699814 85.86401367 191.49121094 C86.19538834 192.24744247 86.526763 193.00367401 86.86817932 193.78282166 C88.50546806 197.5270334 88.50546806 197.5270334 90.26635742 201.21386719 C90.73626208 208.61486561 90.73626208 208.61486561 89.13598633 210.65478516 C86.62964545 212.74482078 84.0186951 213.83606609 81.02416992 215.13183594 C80.41878387 215.39394363 79.81339783 215.65605133 79.18966675 215.92610168 C77.91193542 216.47673732 76.63260562 217.02367669 75.35180664 217.56713867 C73.39995891 218.397707 71.45617964 219.24536002 69.51245117 220.09472656 C68.26680797 220.62898138 67.02072775 221.16221866 65.77416992 221.69433594 C64.64640137 222.17797607 63.51863281 222.66161621 62.35668945 223.15991211 C59.31362752 224.19774576 57.4267224 224.7634243 54.26635742 224.21386719 C50.82934421 221.5672187 49.32242026 218.65231076 47.66479492 214.70214844 C47.18437744 213.57381592 46.70395996 212.4454834 46.20898438 211.28295898 C45.95525055 210.6747934 45.70151672 210.06662781 45.44009399 209.44003296 C44.3270412 206.77330765 43.19190653 204.11614171 42.05848694 201.45802307 C41.44114406 200.00962067 40.82491139 198.56074464 40.20970154 197.11143494 C36.77947191 189.03773981 33.24881729 181.00871873 29.71417236 172.98031616 C28.17793717 169.4906482 26.64426219 165.99985704 25.1104126 162.50914001 C23.93953916 159.84467043 22.76826421 157.18037762 21.59692383 154.51611328 C18.19046716 146.76712194 14.78852135 139.01615051 11.38632202 131.26528931 C9.51319354 126.99806385 7.63975972 122.73097244 5.76635742 118.46386719 C5.01635597 116.75553449 4.26635597 115.04720116 3.51635742 113.33886719 C3.14510742 112.49324219 2.77385742 111.64761719 2.39135742 110.77636719 C-0.98364258 103.08886717 -0.98364258 103.08886717 -2.1084137 100.52688599 C-2.85917414 98.81682223 -3.60993708 97.10675957 -4.36070251 95.396698 C-6.22408812 91.15234912 -8.0874317 86.9079818 -9.95068359 82.66357422 C-13.46411556 74.66025009 -16.97799175 66.65712177 -20.49325562 58.65460205 C-22.15304959 54.87600461 -23.81261754 51.09730792 -25.47216797 47.31860352 C-26.26307051 45.51793535 -27.05408371 43.71731579 -27.84521484 41.91674805 C-28.9424193 39.41955675 -30.03924166 36.92219795 -31.13598633 34.42480469 C-31.45703842 33.69437958 -31.77809052 32.96395447 -32.10887146 32.21139526 C-32.70490447 30.85378931 -33.29762192 29.49472113 -33.88644409 28.13397217 C-34.45594434 26.84324717 -35.04704674 25.56185991 -35.65823364 24.29034424 C-36.79998505 21.85579795 -37.70062595 19.70775009 -37.88110352 17.00805664 C-35.91492539 13.93370706 -32.61466221 12.89916549 -29.37426758 11.50683594 C-28.26217926 11.0123571 -28.26217926 11.0123571 -27.12762451 10.50788879 C-25.55711079 9.8141397 -23.98328225 9.12785399 -22.40649414 8.44848633 C-19.99788607 7.407523 -17.60402647 6.33715549 -15.21020508 5.26269531 C-13.68235273 4.59226431 -12.15372992 3.92358586 -10.62426758 3.25683594 C-9.90950256 2.93611618 -9.19473755 2.61539642 -8.45831299 2.28495789 C-5.62814178 1.08335375 -3.07304416 0.24042035 0 0 Z " fill="#010101" transform="translate(690.733642578125,293.7861328125)"/>
<path d="M0 0 C0.72267864 -0.00623996 1.44535728 -0.01247993 2.18993527 -0.01890898 C4.61223038 -0.03486762 7.03352318 -0.02222423 9.45582581 -0.00964355 C11.19212939 -0.01506347 12.92842837 -0.0221854 14.66471863 -0.03088379 C19.38172364 -0.04913699 24.09837914 -0.04204105 28.81539035 -0.02936745 C33.74983085 -0.01924849 38.6842412 -0.0286302 43.61868286 -0.03491211 C51.90673704 -0.04219242 60.19464872 -0.03259146 68.48268127 -0.0135498 C78.06556961 0.00821249 87.64811745 0.00117378 97.2309975 -0.02085543 C105.45617095 -0.03900705 113.68124187 -0.04156869 121.90642887 -0.03110075 C126.81999451 -0.0248636 131.73340012 -0.02403616 136.64695549 -0.0372467 C141.26733332 -0.04880086 145.88727228 -0.04078745 150.50760269 -0.01766968 C152.20352131 -0.01237995 153.89947685 -0.0139009 155.59538078 -0.02272034 C157.91044013 -0.03364969 160.22409282 -0.01994553 162.5390625 0 C164.48224444 0.00226215 164.48224444 0.00226215 166.46468258 0.00457001 C170.39303184 0.59162224 172.0574768 1.71892216 174.83302307 4.50793457 C175.46121216 6.51182556 175.46121216 6.51182556 175.46412659 8.6463623 C175.4766597 9.45077255 175.48919281 10.2551828 175.50210571 11.08396912 C175.4888475 11.94446365 175.47558929 12.80495819 175.46192932 13.69152832 C175.46434128 14.584048 175.46675323 15.47656769 175.46923828 16.39613342 C175.46825991 18.28150886 175.45486866 20.16691305 175.4299469 22.05212402 C175.39567968 24.93227202 175.40927682 27.80934419 175.4287262 30.6895752 C175.42182631 32.52357259 175.41215264 34.35756208 175.39942932 36.19152832 C175.40438919 37.04999863 175.40934906 37.90846893 175.41445923 38.79295349 C175.39862289 39.6005159 175.38278656 40.40807831 175.36647034 41.2401123 C175.35717247 42.29790138 175.35717247 42.29790138 175.34768677 43.37705994 C174.57141674 46.59106965 173.17068679 48.18233411 170.83302307 50.50793457 C167.57211304 51.13434696 167.57211304 51.13434696 163.62135315 51.13612366 C162.89388539 51.14321804 162.16641764 51.15031243 161.4169054 51.1576218 C158.97825158 51.17523013 156.54118572 51.15708435 154.10255432 51.13903809 C152.35477471 51.14417586 150.60700028 51.15145607 148.85923767 51.16072083 C144.11122897 51.17926119 139.36378063 51.16627972 134.61579514 51.14663053 C129.65019307 51.13026442 124.68462706 51.13905407 119.7190094 51.14414978 C111.37964408 51.14867302 103.0405029 51.13278661 94.70118713 51.1048584 C85.05578587 51.07280547 75.41078889 51.07282148 65.76535892 51.09007317 C56.4919127 51.1059295 47.21861489 51.09921045 37.94517517 51.08213615 C33.99626217 51.07525831 30.04746787 51.07630563 26.09855652 51.08368111 C21.44943693 51.09133464 16.80077817 51.07924842 12.15173721 51.0518322 C10.44411716 51.04493747 8.73645415 51.04486203 7.0288353 51.05204773 C4.70027125 51.06071826 2.37313727 51.04482918 0.04469299 51.02259827 C-1.91093315 51.01838789 -1.91093315 51.01838789 -3.90606689 51.01409245 C-7.70032517 50.42514835 -8.88413869 49.5341725 -11.16697693 46.50793457 C-11.6749115 44.45935059 -11.6749115 44.45935059 -11.68455505 42.26184082 C-11.6971637 41.43418213 -11.70977234 40.60652344 -11.72276306 39.75378418 C-11.71466614 38.86827881 -11.70656921 37.98277344 -11.69822693 37.07043457 C-11.70205383 36.15334717 -11.70588074 35.23625977 -11.70982361 34.29138184 C-11.71254242 32.35476584 -11.70518339 30.4181131 -11.6884613 28.48156738 C-11.66705087 25.51816904 -11.68826362 22.55719506 -11.71385193 19.59387207 C-11.71120865 17.71105422 -11.70608366 15.82823788 -11.69822693 13.94543457 C-11.70632385 13.0599292 -11.71442078 12.17442383 -11.72276306 11.26208496 C-11.71015442 10.43442627 -11.69754578 9.60676758 -11.68455505 8.75402832 C-11.68137268 8.0288501 -11.67819031 7.30367188 -11.6749115 6.55651855 C-10.15626846 0.43158045 -5.54860633 0.00646129 0 0 Z " fill="#000000" transform="translate(510.16697692871094,467.4920654296875)"/>
<path d="M0 0 C5.21169943 2.91491956 6.8686243 7.28163179 9.07421875 12.55078125 C9.44014633 13.39381302 9.80607391 14.23684479 10.18309021 15.10542297 C11.36454206 17.83559963 12.52644986 20.57359259 13.6875 23.3125 C14.49153822 25.18522188 15.29671672 27.05745461 16.10302734 28.92919922 C17.68780482 32.61104439 19.26587239 36.29566632 20.84033203 39.98193359 C22.64921081 44.20351075 24.50832779 48.39798309 26.40234375 52.58203125 C27.10967651 54.15440552 27.10967651 54.15440552 27.83129883 55.75854492 C28.66472924 57.60517757 29.50639692 59.44812568 30.3581543 61.28637695 C32.44769192 65.97645747 33.89817943 69.77537879 33 75 C29.16762294 80.51266332 22.89174741 82.72952981 16.9375 85.375 C15.94427734 85.83777344 14.95105469 86.30054688 13.92773438 86.77734375 C12.49204102 87.42509766 12.49204102 87.42509766 11.02734375 88.0859375 C10.15843506 88.4782959 9.28952637 88.8706543 8.39428711 89.27490234 C5.77596599 90.06784756 4.53317081 89.9310916 2 89 C1.67 87.35 1.34 85.7 1 84 C0.25234375 84.37253906 -0.4953125 84.74507813 -1.265625 85.12890625 C-2.74289062 85.83853516 -2.74289062 85.83853516 -4.25 86.5625 C-5.22453125 87.03816406 -6.1990625 87.51382813 -7.203125 88.00390625 C-10.21816327 89.07769781 -11.10404086 89.1577427 -14 88 C-15.48911609 85.30920141 -16.69592835 82.76191664 -17.86328125 79.93359375 C-18.21835251 79.10730972 -18.57342377 78.2810257 -18.93925476 77.42970276 C-20.07785595 74.77142715 -21.19548002 72.10490613 -22.3125 69.4375 C-23.05264429 67.6979747 -23.79416674 65.9590351 -24.53710938 64.22070312 C-25.63702841 61.64555926 -26.73376059 59.06934239 -27.81936646 56.48812866 C-29.53999596 52.39754124 -31.28994951 48.32820237 -33.13818359 44.29345703 C-33.63659004 43.19602928 -33.63659004 43.19602928 -34.14506531 42.07643127 C-34.76733923 40.71333293 -35.39880416 39.35437808 -36.04109192 38.00059509 C-37.2102659 35.42720113 -38.03708118 33.49576819 -37.82373047 30.64331055 C-36.52497853 28.05235047 -34.59886192 27.69326752 -31.9375 26.75 C-31.01839844 26.41484375 -30.09929688 26.0796875 -29.15234375 25.734375 C-28.44207031 25.49203125 -27.73179687 25.2496875 -27 25 C-27.53959302 21.90912736 -28.14045156 19.71909688 -29.5625 16.875 C-31 14 -31 14 -31 11 C-26.96645119 9.14841755 -22.92197253 7.32203299 -18.875 5.5 C-17.16183594 4.71302734 -17.16183594 4.71302734 -15.4140625 3.91015625 C-14.30546875 3.41386719 -13.196875 2.91757813 -12.0546875 2.40625 C-10.53077393 1.71499023 -10.53077393 1.71499023 -8.97607422 1.00976562 C-5.66485041 -0.11371441 -3.46819482 -0.47327671 0 0 Z " fill="#020202" transform="translate(708,194)"/>
<path d="M0 0 C0.67354499 1.43429001 1.33859701 2.87257057 2 4.3125 C2.37125 5.11300781 2.7425 5.91351563 3.125 6.73828125 C4 9 4 9 4 12 C5.24716797 11.44119141 5.24716797 11.44119141 6.51953125 10.87109375 C7.60621094 10.39800781 8.69289063 9.92492187 9.8125 9.4375 C10.89144531 8.96183594 11.97039063 8.48617187 13.08203125 7.99609375 C16 7 16 7 19 8 C20.04170227 9.65176392 20.04170227 9.65176392 20.98950195 11.82275391 C21.3503035 12.63515533 21.71110504 13.44755676 22.08283997 14.28457642 C22.46413559 15.17293182 22.84543121 16.06128723 23.23828125 16.9765625 C23.64153122 17.89400238 24.04478119 18.81144226 24.46025085 19.75668335 C25.75437302 22.70851446 27.03327511 25.66668718 28.3125 28.625 C29.16248494 30.56551027 30.01338635 32.50561937 30.86523438 34.4453125 C35.43665324 44.88961232 39.86097554 55.37639991 44 66 C33.25 71 33.25 71 31 71 C31.350625 71.5775 31.70125 72.155 32.0625 72.75 C33 75 33 75 32.89331055 76.96582031 C31.5571014 80.00853544 29.64541216 80.48198777 26.64453125 81.796875 C25.54689453 82.28027344 24.44925781 82.76367188 23.31835938 83.26171875 C21.58295898 83.99841797 21.58295898 83.99841797 19.8125 84.75 C18.67490234 85.25660156 17.53730469 85.76320313 16.36523438 86.28515625 C5.97439877 90.78603192 5.97439877 90.78603192 1 90 C-3.01151243 86.30351335 -4.86670663 81.28389518 -6.9765625 76.3515625 C-7.34390503 75.50994568 -7.71124756 74.66832886 -8.08972168 73.8012085 C-9.27575544 71.07903763 -10.45082728 68.35230554 -11.625 65.625 C-12.43419272 63.75709004 -13.24392715 61.88941466 -14.05419922 60.02197266 C-15.25827141 57.24606639 -16.46153326 54.46983183 -17.66140747 51.69210815 C-19.86976502 46.5830898 -22.11178752 41.49280621 -24.40625 36.421875 C-24.87724121 35.37306152 -25.34823242 34.32424805 -25.83349609 33.24365234 C-26.66538508 31.39588381 -27.50618692 29.55208915 -28.35791016 27.71337891 C-30.44269618 23.0354823 -31.91390709 19.21313198 -31 14 C-26.96842864 9.20473892 -20.0257901 7.15578192 -14.375 4.75 C-13.32570313 4.29109375 -12.27640625 3.8321875 -11.1953125 3.359375 C-3.39676339 0 -3.39676339 0 0 0 Z " fill="#020202" transform="translate(599,241)"/>
<path d="M0 0 C0.70351089 -0.0065712 1.40702179 -0.0131424 2.1318512 -0.01991272 C4.43856956 -0.03947157 6.74522336 -0.05126953 9.05200195 -0.0612793 C9.84701426 -0.06535482 10.64202656 -0.06943035 11.46113014 -0.07362938 C15.67004758 -0.09441683 19.87893313 -0.10874955 24.08789062 -0.11816406 C28.40372276 -0.12920873 32.71903658 -0.1636071 37.03468609 -0.20333576 C40.38158537 -0.22965004 43.72836384 -0.23786895 47.07535744 -0.24144554 C48.66476756 -0.2462739 50.25417368 -0.2577788 51.84348106 -0.27648354 C65.87316678 -0.43133241 77.69979558 1.65635741 88.6027832 11.17700195 C93.87797866 16.64546966 98.6027832 24.41036619 98.6027832 32.17700195 C52.0727832 32.17700195 5.5427832 32.17700195 -42.3972168 32.17700195 C-40.82269696 22.72988296 -36.29493022 13.90832871 -28.3972168 8.17700195 C-18.9743499 2.64329003 -11.02804403 0.08596525 0 0 Z " fill="#050505" transform="translate(563.397216796875,431.822998046875)"/>
<path d="M0 0 C4.62 0 9.24 0 14 0 C16.38956834 10.74946959 18.36204942 21.51866777 20.1875 32.375 C20.46261409 33.99744275 20.73800318 35.61983889 21.01367188 37.2421875 C21.67894087 41.16093029 22.34052675 45.08027788 23 49 C26.32030575 41.35992535 28.60216653 33.61761163 30.6875 25.5625 C31.29494886 23.25113799 31.90299314 20.93993235 32.51171875 18.62890625 C32.77428467 17.61900635 33.03685059 16.60910645 33.30737305 15.56860352 C33.81247018 13.69545337 34.38650065 11.84049806 35 10 C39.95 10 44.9 10 50 10 C52.56220172 17.50359074 54.91388531 25.02085899 57.05078125 32.65625 C58.12287728 36.43285166 59.28516232 40.17609107 60.484375 43.9140625 C61 46 61 46 61 50 C61.66 50 62.32 50 63 50 C63.05328964 49.39096832 63.10657928 48.78193665 63.16148376 48.15444946 C63.72114601 42.13356173 64.55972218 36.22321417 65.62890625 30.2734375 C65.78286362 29.39974518 65.93682098 28.52605286 66.09544373 27.62588501 C66.58100451 24.87496467 67.07165598 22.12498202 67.5625 19.375 C67.89552158 17.49354961 68.22820685 15.61203965 68.56054688 13.73046875 C69.36981774 9.15294916 70.18365077 4.57626231 71 0 C75.95 0 80.9 0 86 0 C85.48028085 9.91870791 83.17848613 19.06080656 80.6875 28.625 C80.09388164 30.93375923 79.50271028 33.24313275 78.91213989 35.55267334 C78.52166291 37.07951637 78.13013023 38.60608981 77.73751831 40.13238525 C76.16339639 46.27760843 74.69292542 52.44434689 73.27165222 58.62661743 C72.6150461 61.46893669 71.92326532 64.23020405 71 67 C65.72 67 60.44 67 55 67 C50.92167282 54.02350442 46.94717299 41.01694499 43 28 C41.03315265 31.76389865 39.8457333 35.61613445 38.6875 39.6875 C38.36700684 40.79351563 38.36700684 40.79351563 38.04003906 41.921875 C37.35665701 44.28029131 36.67803858 46.64004241 36 49 C35.08771548 52.16795396 34.17019955 55.33433745 33.25 58.5 C33.03947998 59.23565186 32.82895996 59.97130371 32.61206055 60.72924805 C31.11286848 65.88713152 31.11286848 65.88713152 30 67 C27.30345146 67.07319621 24.63308542 67.09242537 21.9375 67.0625 C21.17888672 67.05798828 20.42027344 67.05347656 19.63867188 67.04882812 C17.75908129 67.0370068 15.87953101 67.01907078 14 67 C13.40224344 64.5482015 12.80459631 62.09637642 12.20703125 59.64453125 C12.02053009 58.87942734 11.83402893 58.11432343 11.64187622 57.32603455 C10.61571913 53.11474173 9.59147018 48.90299694 8.57055664 44.69042969 C8.15904626 42.99283143 7.74750671 41.29524025 7.3359375 39.59765625 C7.13296555 38.7603598 6.92999359 37.92306335 6.72087097 37.06039429 C5.59640863 32.42973779 4.45441992 27.80417143 3.2890625 23.18359375 C3.05469482 22.24088623 2.82032715 21.29817871 2.57885742 20.3269043 C2.16810071 18.67652855 1.74969315 17.02802669 1.3215332 15.38208008 C0.032187 10.14544879 -0.16524938 5.39459256 0 0 Z " fill="#060606" transform="translate(355,563)"/>
<path d="M0 0 C4.95 0 9.9 0 15 0 C19.24577221 7.83200699 22.17217155 16.16314718 25.25 24.5 C25.80948593 26.00536074 26.36937832 27.51057048 26.9296875 29.015625 C28.29115425 32.67535794 29.64709235 36.33709481 31 40 C33.3471866 36.4792201 34.72652113 32.79610218 36.22265625 28.8671875 C36.52819931 28.0747464 36.83374237 27.2823053 37.14854431 26.46585083 C38.12332667 23.93688363 39.09333272 21.40612387 40.0625 18.875 C41.03558435 16.33687364 42.00973512 13.79918118 42.98716736 11.26272583 C43.59523682 9.68453382 44.20074034 8.10535041 44.80348206 6.52511597 C46.8875982 1.1124018 46.8875982 1.1124018 48 0 C50.53049402 -0.07313567 53.03304837 -0.09247527 55.5625 -0.0625 C56.62887695 -0.05573242 56.62887695 -0.05573242 57.71679688 -0.04882812 C59.47790013 -0.03700864 61.23896036 -0.01907263 63 0 C64.96265192 8.65054493 65.9807572 17.38956334 67 26.1875 C67.33163852 29.01452408 67.66568559 31.84126006 68 34.66796875 C68.08114044 35.35977737 68.16228088 36.051586 68.24588013 36.76435852 C68.95751241 42.78067405 69.77420059 48.78008849 70.62060547 54.77880859 C71.10598184 58.89982261 71.14537072 62.85693447 71 67 C66.71 67 62.42 67 58 67 C57.42152816 62.09375875 56.8522845 57.18655938 56.29101562 52.27832031 C56.09944557 50.61397511 55.90549769 48.9499016 55.70898438 47.28613281 C54.59315576 37.82436158 53.65848034 28.54832054 54 19 C53.34 19 52.68 19 52 19 C51.84942139 19.54640137 51.69884277 20.09280273 51.54370117 20.65576172 C49.24994731 28.65094634 46.29447258 36.36938553 43.3125 44.125 C42.79589779 45.47643786 42.27961945 46.82799958 41.76367188 48.1796875 C40.51342727 51.45480659 39.25660226 54.72728715 38 58 C33.71 58 29.42 58 25 58 C20.38 45.79 15.76 33.58 11 21 C9.29584604 24.40830792 9.40166169 28.30243407 9.0625 32.05859375 C8.97750244 32.95868668 8.89250488 33.8587796 8.80493164 34.78614807 C8.53282706 37.66959148 8.26587063 40.55347553 8 43.4375 C7.73397313 46.31793712 7.46674242 49.19822998 7.19506836 52.07814026 C7.02586141 53.87188424 6.85990714 55.66593859 6.69750977 57.46031189 C6.62072998 58.27448074 6.5439502 59.0886496 6.46484375 59.92749023 C6.399021 60.64315659 6.33319824 61.35882294 6.26538086 62.09617615 C6 64 6 64 5 67 C0.71 67 -3.58 67 -8 67 C-8.21489468 59.07853738 -7.39308071 51.63439018 -6.1875 43.8125 C-5.81907753 41.3374231 -5.45191006 38.86215909 -5.0859375 36.38671875 C-4.90256836 35.15356934 -4.71919922 33.92041992 -4.53027344 32.64990234 C-3.59389234 26.2047378 -2.77206769 19.74522346 -1.9519043 13.28442383 C-1.84015869 12.40939209 -1.72841309 11.53436035 -1.61328125 10.6328125 C-1.51829346 9.87887207 -1.42330566 9.12493164 -1.32543945 8.34814453 C-0.93863755 5.5572513 -0.46320566 2.77923394 0 0 Z " fill="#040404" transform="translate(539,563)"/>
<path d="M0 0 C1.08984375 1.6796875 1.08984375 1.6796875 1.9375 3.875 C2.42863281 5.08929688 2.42863281 5.08929688 2.9296875 6.328125 C3.28289063 7.20984375 3.63609375 8.0915625 4 9 C4.84507662 10.87911447 5.69940257 12.7540942 6.5625 14.625 C9.89747673 21.96397614 12.91769189 29.35479671 15.71875 36.9140625 C16.9258261 39.82134944 18.33732103 42.33521992 20 45 C22.05683099 49.35098863 23.41675647 53.21740302 24 58 C20.36768014 60.3206488 16.79099839 61.94896798 12.75 63.4375 C6.56958557 65.76211534 0.56034182 68.32081123 -5.41015625 71.13671875 C-6.20292969 71.50410156 -6.99570312 71.87148438 -7.8125 72.25 C-8.87404297 72.75273437 -8.87404297 72.75273437 -9.95703125 73.265625 C-12 74 -12 74 -16 74 C-16.31453125 73.16597656 -16.6290625 72.33195312 -16.953125 71.47265625 C-17.38109375 70.34730469 -17.8090625 69.22195313 -18.25 68.0625 C-18.66765625 66.96035156 -19.0853125 65.85820312 -19.515625 64.72265625 C-21.19663291 60.4162079 -23.09980496 56.21318492 -25 52 C-25.65549977 50.53540311 -26.31045401 49.07056194 -26.96484375 47.60546875 C-27.28759277 46.88311035 -27.6103418 46.16075195 -27.94287109 45.41650391 C-31.05512399 38.44181835 -34.11035283 31.4564067 -36.9921875 24.3828125 C-37.9545256 22.01011026 -37.9545256 22.01011026 -39.1328125 19.8671875 C-40 18 -40 18 -40 15 C-38.6875 14.41666667 -37.375 13.83333333 -36.0625 13.25 C-35.23621094 12.88261719 -34.40992188 12.51523438 -33.55859375 12.13671875 C-31.96788427 11.4300066 -30.3768057 10.72412386 -28.78515625 10.01953125 C-24.63760741 8.18200961 -20.50207122 6.3206172 -16.375 4.4375 C-14.99248047 3.81294922 -14.99248047 3.81294922 -13.58203125 3.17578125 C-12.00965592 2.45976767 -10.44281998 1.73119411 -8.88671875 0.98046875 C-5.50115011 -0.6071962 -3.5146436 -1.47984994 0 0 Z " fill="#030303" transform="translate(664,229)"/>
<path d="M0 0 C6.105 -0.0825 12.21 -0.165 18.5 -0.25 C20.41103516 -0.28641602 22.32207031 -0.32283203 24.29101562 -0.36035156 C25.82941571 -0.37204922 27.3678283 -0.38223849 28.90625 -0.390625 C29.68581055 -0.41108887 30.46537109 -0.43155273 31.26855469 -0.45263672 C36.90888475 -0.45617519 41.33400058 0.73406452 46 4 C50.32915591 8.94096839 50.62113698 14.08285603 50.5 20.4375 C50.51546875 21.24509766 50.5309375 22.05269531 50.546875 22.88476562 C50.50967475 28.65545462 49.31278941 33.21381083 46 38 C42.0625 41 42.0625 41 39 41 C40.79066882 43.93810937 42.58270759 46.87538081 44.375 49.8125 C44.88289062 50.64587891 45.39078125 51.47925781 45.9140625 52.33789062 C46.40390625 53.14033203 46.89375 53.94277344 47.3984375 54.76953125 C47.84880371 55.50792236 48.29916992 56.24631348 48.76318359 57.00708008 C49.80907225 58.6923523 50.89978666 60.34967999 52 62 C52 63.65 52 65.3 52 67 C47.38 67 42.76 67 38 67 C37.29617188 65.27910156 36.59234375 63.55820312 35.8671875 61.78515625 C31.66814468 50.50686555 31.66814468 50.50686555 24.05761719 41.76513672 C19.74802442 40.49403098 16.48283723 41.28274604 12 42 C12 50.25 12 58.5 12 67 C8.04 67 4.08 67 0 67 C0 44.89 0 22.78 0 0 Z " fill="#020202" transform="translate(680,563)"/>
<path d="M0 0 C4.62 0 9.24 0 14 0 C15.46759766 2.7534375 15.46759766 2.7534375 16.96484375 5.5625 C17.94757252 7.40322251 18.93091315 9.24361692 19.91430664 11.08398438 C20.58095712 12.33234347 21.24700311 13.58102563 21.91235352 14.83007812 C27.13720554 24.63708967 32.55009328 34.31127695 38 44 C38 29.48 38 14.96 38 0 C42.29 0 46.58 0 51 0 C51 22.11 51 44.22 51 67 C46.38 67 41.76 67 37 67 C29 52.33333333 21 37.66666667 13 23 C13 37.52 13 52.04 13 67 C8.71 67 4.42 67 0 67 C0 44.89 0 22.78 0 0 Z " fill="#070707" transform="translate(863,563)"/>
<path d="M0 0 C5.94 0 11.88 0 18 0 C20.61894656 7.69837947 23.22880473 15.39966079 25.82302856 23.10640049 C27.02812695 26.68524309 28.23707732 30.26268408 29.45507812 33.8371582 C30.63146984 37.28999751 31.79741843 40.74620508 32.95635986 44.20493889 C33.39920739 45.5205975 33.84573563 46.83502339 34.29608154 48.14813423 C34.92862059 49.99457137 35.54661165 51.84597251 36.1640625 53.69750977 C36.51936035 54.74785904 36.8746582 55.79820831 37.24072266 56.88038635 C38.08475577 60.34823279 38.13136709 63.44398729 38 67 C33.71 67 29.42 67 25 67 C23.68 62.71 22.36 58.42 21 54 C13.08 54 5.16 54 -3 54 C-4.32 58.29 -5.64 62.58 -7 67 C-11.29 67 -15.58 67 -20 67 C-20.18009747 62.12489076 -19.72500738 58.31205306 -18.1640625 53.69750977 C-17.56343994 51.89643517 -17.56343994 51.89643517 -16.95068359 50.05897522 C-16.50901574 48.76970789 -16.06711585 47.48052002 -15.625 46.19140625 C-15.17567553 44.85650524 -14.72728485 43.52128959 -14.27978516 42.18577576 C-13.10539569 38.68920182 -11.91845051 35.19701986 -10.72875977 31.70562744 C-9.51462453 28.13511399 -8.31252271 24.56055566 -7.109375 20.98632812 C-4.75127954 13.98688199 -2.37879177 6.99244575 0 0 Z " fill="#060606" transform="translate(313,563)"/>
<path d="M0 0 C15.18 0 30.36 0 46 0 C46 8 46 8 44.9284668 9.98168945 C41.98164747 11.53773242 39.45771162 11.33490774 36.14453125 11.29296875 C35.48289474 11.28872391 34.82125824 11.28447906 34.13957214 11.28010559 C32.0301309 11.26333693 29.92165154 11.22569099 27.8125 11.1875 C26.38087319 11.17245068 24.94923138 11.1587627 23.51757812 11.14648438 C20.01105173 11.11599284 16.50660006 11.05727659 13 11 C13 16.61 13 22.22 13 28 C20.92 28 28.84 28 37 28 C37 31.63 37 35.26 37 39 C29.08 39 21.16 39 13 39 C13 44.94 13 50.88 13 57 C23.89 57 34.78 57 46 57 C46 60.3 46 63.6 46 67 C30.82 67 15.64 67 0 67 C0 44.89 0 22.78 0 0 Z " fill="#050505" transform="translate(477,563)"/>
<path d="M0 0 C15.18 0 30.36 0 46 0 C46 8 46 8 44.9284668 9.98168945 C41.98164747 11.53773242 39.45771162 11.33490774 36.14453125 11.29296875 C35.48289474 11.28872391 34.82125824 11.28447906 34.13957214 11.28010559 C32.0301309 11.26333693 29.92165154 11.22569099 27.8125 11.1875 C26.38087319 11.17245068 24.94923138 11.1587627 23.51757812 11.14648438 C20.01105173 11.11599284 16.50660006 11.05727659 13 11 C13 16.61 13 22.22 13 28 C20.92 28 28.84 28 37 28 C37 31.3 37 34.6 37 38 C29.08 38 21.16 38 13 38 C13 44.27 13 50.54 13 57 C23.89 57 34.78 57 46 57 C46 60.3 46 63.6 46 67 C30.82 67 15.64 67 0 67 C0 44.89 0 22.78 0 0 Z " fill="#040404" transform="translate(806,563)"/>
<path d="M0 0 C0.81134903 0.00565979 1.62269806 0.01131958 2.45863342 0.01715088 C5.02643175 0.0393758 7.5927864 0.08954265 10.16015625 0.140625 C11.91078701 0.1607081 13.66143984 0.17895569 15.41210938 0.1953125 C19.68284003 0.23919456 23.95250418 0.30812225 28.22265625 0.390625 C28.515625 6.4453125 28.515625 6.4453125 28.22265625 8.390625 C24.73971358 10.71258678 23.28004802 10.65267091 19.1640625 10.69921875 C17.97361328 10.72435547 16.78316406 10.74949219 15.55664062 10.77539062 C13.04627485 10.81049154 10.53585241 10.84175377 8.02539062 10.86914062 C6.83365234 10.89556641 5.64191406 10.92199219 4.4140625 10.94921875 C3.32295166 10.96267334 2.23184082 10.97612793 1.10766602 10.98999023 C-2.27196147 11.45931144 -3.60804261 11.72876945 -5.77734375 14.390625 C-6.169754 17.41991753 -6.31452148 20.08061496 -6.2734375 23.109375 C-6.27489273 23.96366089 -6.27634796 24.81794678 -6.27784729 25.69812012 C-6.27618783 27.50369681 -6.26462118 29.30928758 -6.24389648 31.11474609 C-6.21494979 33.88049319 -6.22328406 36.644323 -6.23632812 39.41015625 C-6.23009046 41.16407183 -6.2216993 42.91798135 -6.2109375 44.671875 C-6.21534096 45.91414856 -6.21534096 45.91414856 -6.21983337 47.18151855 C-6.27509394 51.44536055 -6.27509394 51.44536055 -4.39385986 55.10566711 C-2.19698514 56.85194819 -0.67548816 56.81795396 2.109375 56.90234375 C2.95459717 56.93545654 3.79981934 56.96856934 4.6706543 57.00268555 C5.73968994 57.02758057 6.80872559 57.05247559 7.91015625 57.078125 C13.01484375 57.2328125 13.01484375 57.2328125 18.22265625 57.390625 C18.22265625 48.480625 18.22265625 39.570625 18.22265625 30.390625 C22.18265625 30.390625 26.14265625 30.390625 30.22265625 30.390625 C30.22265625 42.600625 30.22265625 54.810625 30.22265625 67.390625 C24.63507452 67.48264373 19.05013914 67.56222291 13.46240234 67.61035156 C11.563223 67.63042129 9.6641051 67.65768351 7.76513672 67.69238281 C5.02946786 67.74110609 2.29461854 67.76364007 -0.44140625 67.78125 C-1.28538971 67.80189514 -2.12937317 67.82254028 -2.99893188 67.84381104 C-8.40247477 67.84585075 -11.56361868 67.09314059 -15.77734375 63.390625 C-19.90886357 58.78914344 -19.21025077 53.20764632 -19.17578125 47.359375 C-19.17865143 46.2907019 -19.18152161 45.22202881 -19.18447876 44.12097168 C-19.18651723 41.86498483 -19.18100261 39.60898023 -19.16845703 37.35302734 C-19.15240096 33.90291769 -19.16831379 30.45397953 -19.1875 27.00390625 C-19.18551753 24.80989325 -19.18167378 22.61588098 -19.17578125 20.421875 C-19.18185394 19.39155151 -19.18792664 18.36122803 -19.19418335 17.29968262 C-19.1027421 7.97325994 -19.1027421 7.97325994 -15.77734375 4.390625 C-10.43801263 0.49856533 -6.49739457 -0.17348614 0 0 Z " fill="#010101" transform="translate(760.77734375,562.609375)"/>
<path d="M0 0 C15.18 0 30.36 0 46 0 C46 2.64 46 5.28 46 8 C44 10 44 10 40.83544922 10.22705078 C39.49182037 10.22673389 38.1481659 10.21542181 36.8046875 10.1953125 C36.09724396 10.1924826 35.38980042 10.18965271 34.66091919 10.18673706 C32.3987749 10.17553137 30.13702485 10.15042679 27.875 10.125 C26.34245363 10.11497067 24.80990106 10.10584474 23.27734375 10.09765625 C19.51795465 10.0772912 15.75941922 10.03814518 12 10 C12 15.94 12 21.88 12 28 C20.25 28 28.5 28 37 28 C37 31.3 37 34.6 37 38 C28.75 38 20.5 38 12 38 C12 44.27 12 50.54 12 57 C23.22 57 34.44 57 46 57 C46 60.3 46 63.6 46 67 C30.82 67 15.64 67 0 67 C0 44.89 0 22.78 0 0 Z " fill="#000000" transform="translate(623,563)"/>
<path d="M0 0 C0.81134903 0.00565979 1.62269806 0.01131958 2.45863342 0.01715088 C5.02643175 0.0393758 7.5927864 0.08954265 10.16015625 0.140625 C11.91078701 0.1607081 13.66143984 0.17895569 15.41210938 0.1953125 C19.68284003 0.23919456 23.95250418 0.30812225 28.22265625 0.390625 C28.58400494 6.77445192 28.58400494 6.77445192 27.10131836 9.30273438 C24.40832852 10.86218372 22.26505135 10.77670448 19.1640625 10.796875 C17.97361328 10.81878906 16.78316406 10.84070313 15.55664062 10.86328125 C13.68975586 10.87681641 13.68975586 10.87681641 11.78515625 10.890625 C9.32799126 10.90849529 6.87087714 10.93919831 4.4140625 10.984375 C3.32295166 10.99146484 2.23184082 10.99855469 1.10766602 11.00585938 C-2.2795896 11.45760811 -3.60610587 11.72349109 -5.77734375 14.390625 C-6.169754 17.41991753 -6.31452148 20.08061496 -6.2734375 23.109375 C-6.27489273 23.96366089 -6.27634796 24.81794678 -6.27784729 25.69812012 C-6.27618783 27.50369681 -6.26462118 29.30928758 -6.24389648 31.11474609 C-6.21494979 33.88049319 -6.22328406 36.644323 -6.23632812 39.41015625 C-6.23009046 41.16407183 -6.2216993 42.91798135 -6.2109375 44.671875 C-6.21534096 45.91414856 -6.21534096 45.91414856 -6.21983337 47.18151855 C-6.2664421 51.42402015 -6.2664421 51.42402015 -4.45123291 55.10566711 C-1.73479737 57.19093378 0.93428758 56.83371952 4.296875 56.90234375 C4.98070755 56.92029495 5.6645401 56.93824615 6.36909485 56.95674133 C8.54938625 57.01084575 10.72945881 57.0447384 12.91015625 57.078125 C14.39000442 57.1112982 15.8698237 57.14578787 17.34960938 57.18164062 C20.97374794 57.26657024 24.59796277 57.33338135 28.22265625 57.390625 C28.22265625 60.690625 28.22265625 63.990625 28.22265625 67.390625 C22.92079066 67.48981086 17.61947007 67.56224255 12.31689453 67.61035156 C10.51471544 67.63041533 8.71260104 67.65767313 6.91064453 67.69238281 C4.31396489 67.74113329 1.71814896 67.76364582 -0.87890625 67.78125 C-2.0792601 67.81221771 -2.0792601 67.81221771 -3.30386353 67.84381104 C-8.59066815 67.84591178 -11.69333555 67.04898435 -15.77734375 63.390625 C-20.05001627 57.72104871 -20.36947512 53.07378002 -20.30859375 46.109375 C-20.31242065 45.13705933 -20.31624756 44.16474365 -20.32019043 43.16296387 C-20.32290169 41.11563069 -20.31559578 39.0682624 -20.29882812 37.02099609 C-20.27740758 33.89992523 -20.29865693 30.78115612 -20.32421875 27.66015625 C-20.32157533 25.66405746 -20.31645007 23.66796008 -20.30859375 21.671875 C-20.31669067 20.74564331 -20.3247876 19.81941162 -20.33312988 18.8651123 C-20.24692168 12.86331373 -19.49092082 9.19021974 -15.77734375 4.390625 C-10.94547827 0.23551198 -6.16432582 -0.16459291 0 0 Z " fill="#040404" transform="translate(946.77734375,562.609375)"/>
<path d="M0 0 C4.29 0 8.58 0 13 0 C17.62 10.89 22.24 21.78 27 33 C29.57380162 30.42619838 30.40924941 27.9058834 31.78515625 24.53125 C32.17688271 23.57708191 32.17688271 23.57708191 32.57652283 22.6036377 C33.40991714 20.57099145 34.23638715 18.53561509 35.0625 16.5 C35.89364327 14.46500779 36.72617555 12.43058966 37.55918884 10.3963623 C38.31401181 8.55100253 39.06541146 6.7042436 39.81665039 4.85742188 C40.49587031 3.21731668 41.20611276 1.58777448 42 0 C46.29 0 50.58 0 55 0 C55 6.74455768 55 6.74455768 53.17993164 10.01977539 C52.78274429 10.75237076 52.38555695 11.48496613 51.97633362 12.23976135 C51.32482582 13.40691933 51.32482582 13.40691933 50.66015625 14.59765625 C49.75164967 16.30448492 48.84480511 18.01219907 47.93945312 19.72070312 C46.51701178 22.37584598 45.08442629 25.02307573 43.62036133 27.65551758 C36.24930913 40.98259241 33.4658132 51.7365539 34 67 C29.71 67 25.42 67 21 67 C21.04455322 65.72697021 21.08910645 64.45394043 21.13500977 63.14233398 C21.26818032 48.20869324 17.10482292 37.94960627 9.9375 25.0625 C8.50584664 22.41820316 7.08583315 19.76842125 5.6778717 17.11143494 C4.80897174 15.47901597 3.92500994 13.8544931 3.02366638 12.23976135 C2.62647903 11.50716599 2.22929169 10.77457062 1.82006836 10.01977539 C1.46778671 9.38584366 1.11550507 8.75191193 0.75254822 8.09877014 C0 6 0 6 0 0 Z " fill="#050505" transform="translate(980,563)"/>
<path d="M0 0 C4.29 0 8.58 0 13 0 C13 18.81 13 37.62 13 57 C23.56 57 34.12 57 45 57 C45 60.3 45 63.6 45 67 C30.15 67 15.3 67 0 67 C0 44.89 0 22.78 0 0 Z " fill="#050505" transform="translate(243,563)"/>
<path d="M0 0 C1.71484375 1.609375 1.71484375 1.609375 2.9375 3.75 C3.56978516 4.79414063 3.56978516 4.79414063 4.21484375 5.859375 C5 8 5 8 4.96362305 9.92236328 C3.44717604 13.191926 0.52085707 14.0296507 -2.6328125 15.3828125 C-3.30287323 15.68315399 -3.97293396 15.98349548 -4.66329956 16.29293823 C-6.08432325 16.92664272 -7.50852065 17.55327062 -8.93554688 18.17333984 C-11.10198006 19.11499423 -13.2584849 20.07676047 -15.4140625 21.04296875 C-16.79894209 21.65746184 -18.18434357 22.27078035 -19.5703125 22.8828125 C-20.20913361 23.16617462 -20.84795471 23.44953674 -21.50613403 23.7414856 C-25.62002489 25.52357838 -29.67867729 26.85381034 -34 28 C-37.74747809 19.30585082 -37.74747809 19.30585082 -36 14 C-33.40234375 12.12890625 -33.40234375 12.12890625 -29.9375 10.5625 C-29.32132813 10.27882568 -28.70515625 9.99515137 -28.0703125 9.70288086 C-26.74800431 9.09886558 -25.42078272 8.50551434 -24.08935547 7.921875 C-21.95167742 6.97867889 -19.83734287 5.99356093 -17.72265625 5 C-16.31592317 4.35238469 -14.90838792 3.70650855 -13.5 3.0625 C-12.84249756 2.75578369 -12.18499512 2.44906738 -11.50756836 2.13305664 C-7.5415223 0.37593482 -4.33196988 -0.67940247 0 0 Z " fill="#050505" transform="translate(654,210)"/>
<path d="M0 0 C3.196875 -0.0825 6.39375 -0.165 9.6875 -0.25 C10.68612061 -0.28641602 11.68474121 -0.32283203 12.71362305 -0.36035156 C16.78603929 -0.41123112 19.42532969 -0.29203372 23.10546875 1.578125 C25.64791587 4.82826358 25.66838277 6.9046663 25.625 11 C25.63789062 12.216875 25.65078125 13.43375 25.6640625 14.6875 C25 18 25 18 23.10546875 20.421875 C18.60905143 22.70684682 14.64548864 22.43079959 9.6875 22.25 C6.490625 22.1675 3.29375 22.085 0 22 C0 14.74 0 7.48 0 0 Z " fill="#F3F3F3" transform="translate(692,573)"/>
<path d="M0 0 C0.66 0 1.32 0 2 0 C3.34041103 4.10188948 4.67111192 8.20686436 6 12.3125 C6.3815625 13.47974609 6.763125 14.64699219 7.15625 15.84960938 C7.5171875 16.96787109 7.878125 18.08613281 8.25 19.23828125 C8.58515625 20.26993408 8.9203125 21.30158691 9.265625 22.36450195 C10 25 10 25 10 28 C4.06 28 -1.88 28 -8 28 C-5.70489354 18.49170181 -3.28419509 9.22369685 0 0 Z " fill="#F3F3F3" transform="translate(321,577)"/>
</svg>
